<svg xmlns="http://www.w3.org/2000/svg" width="43" height="56" viewBox="0 0 43 56">
    <path fill="#FF5600" fill-rule="nonzero" d="M29.753 39.921c1.249 1.645 1.803 3.437 1.803 5.796 0 4.13-2.44 7.805-6.214 9.38l-1.581.504c-1.484.35-3.01.35-4.501.007l-1.581-.504c-3.787-1.575-6.235-5.25-6.235-9.387 0-2.219.707-4.34 1.997-6.076.485 1.372 1.345 2.919 2.864 3.794.403.231.895.238 1.304.035.416-.21.7-.616.756-1.085.014-.07.93-6.867 7.178-12.488.389 2.597 1.422 6.58 4.182 9.975.007.014.021.028.028.049zm9.363-17.85l-.055-.077C32.673 14.175 31.057 4.718 30.655.133 15.924 12.04 13.878 27.524 13.864 27.685c-.062.469-.34.875-.756 1.085-.416.21-.908.196-1.31-.035-3.573-2.065-5.133-6.426-5.792-9.261A21.739 21.739 0 0 0 0 34.517c0 8.085 4.383 15.351 11.326 19.103a13.022 13.022 0 0 1-2.657-7.903c0-3.878 1.7-7.518 4.668-9.989a1.37 1.37 0 0 1 1.415-.21c.478.196.804.651.846 1.169.048.518.243 1.575.673 2.548 1.026-3.283 3.558-8.799 9.62-13.202.422-.315.984-.35 1.449-.112.464.245.756.735.749 1.26 0 .063 0 6.335 3.842 10.99.035.049.07.091.104.147 1.567 2.114 2.296 4.466 2.296 7.399s-.971 5.691-2.664 7.903C38.617 49.868 43 42.602 43 34.517c0-5.047-1.2-8.883-3.884-12.446z"/>
</svg>
